# xmcd
#
# Track frame offsets:
#	150
#	15752
#	34720
#	55687
#	70417
#	87277
#	106245
#	125030
#	137902
#	153130
#	178702
#
# Disc length: 2583 seconds
#
# Revision: 3
# Processed by: cddbd v1.5.2PL0 Copyright (c) Steve Scherf et al.
# Submitted via: EasyCDDAExtractor 2010.6.0.0
#
DISCID=870a150b
DTITLE=Various Artist - Screamin' the Blues
DYEAR=1994
DGENRE=Blues
TTITLE0=Bo Diddley - Road Runner
TTITLE1=Clarence Edwards - Still A Fool
TTITLE2=Brian Knight-w-Lawrence Scott-Mickey Moody-Whitesnake - Take This Hamm
TTITLE2=er
TTITLE3=Big Walter "Shaky" Horton - Easy
TTITLE4=Peter Green-Mick Green - Chinese White Boy
TTITLE5=Isaac Scott - Feast Goin' On
TTITLE6=Roy Gaines-Crusaders - First Rule Of Cheatin'
TTITLE7=King Biscuit-Ronnie Hawkins Band - Hoodoo Party
TTITLE8=King Curtis - Soul Groove Pt2
TTITLE9=Mighty Houserockers - Play The Blues For You
TTITLE10=Various Artist - Alabama Train
EXTD=Blues Legends, BLS12182
EXTT0=
EXTT1=
EXTT2=
EXTT3=
EXTT4=
EXTT5=
EXTT6=
EXTT7=
EXTT8=
EXTT9=
EXTT10=
PLAYORDER=
